<svg xmlns="http://www.w3.org/2000/svg" width="304" height="50" fill="none"><path d="M73.48 35.745c3.9 0 6.248-1.426 8-3.355v3.06h3.774V4H81.5v13.797c-1.76-2.013-4.1-3.397-8-3.397-5.66 0-9.98 4.655-9.98 10.693 0 5.955 4.32 10.65 9.98 10.65zm.88-3.313c-4.026 0-7.045-3.23-7.045-7.34 0-4.152 3.02-7.38 7.045-7.38s7.13 3.23 7.13 7.38c0 4.1-3.103 7.34-7.13 7.34zm16.114 3.018h3.774V24.506c0-4.235 2.6-6.5 5.452-6.5.88 0 1.635.042 2.558.377V14.4c-3.65-.084-6.332.84-8 3.145v-2.852h-3.774V35.45zm24.476.505c6.08 0 10.987-4.865 10.987-10.903 0-6.08-4.907-10.945-10.987-10.945a10.9 10.9 0 0 0-10.945 10.945c0 6.04 4.864 10.903 10.945 10.903zm0-3.523c-3.984 0-7.045-3.23-7.045-7.34 0-4.152 3.06-7.38 7.045-7.38s7.087 3.23 7.087 7.38c0 4.1-3.104 7.34-7.087 7.34zm15.002 13.503h3.774V32.4c1.76 1.93 4.1 3.355 8 3.355 5.66 0 9.98-4.697 9.98-10.65 0-6.04-4.32-10.693-9.98-10.693-3.9 0-6.25 1.384-8 3.397v-3.103h-3.774v31.242zm10.903-13.503c-4.026 0-7.13-3.23-7.13-7.34 0-4.152 3.103-7.38 7.13-7.38s7.045 3.23 7.045 7.38c0 4.1-3.02 7.34-7.045 7.34zm24.377 3.523c3.648 0 6.92-1.76 8.9-4.53l-3.02-2.223c-1.216 1.97-3.397 3.23-5.87 3.23-4.068-.042-7.17-3.23-7.17-7.34 0-4.152 3.103-7.38 7.17-7.38 2.432.042 4.57 1.3 5.83 3.23l3.06-2.264a10.92 10.92 0 0 0-8.89-4.571c-5.955 0-10.903 4.865-10.903 10.945 0 6.04 4.948 10.903 10.903 10.903zm22.08 0c6.08 0 10.987-4.865 10.987-10.903 0-6.08-4.906-10.945-10.987-10.945a10.9 10.9 0 0 0-10.945 10.945c0 6.04 4.865 10.903 10.945 10.903zm0-3.523c-3.984 0-7.045-3.23-7.045-7.34 0-4.152 3.06-7.38 7.045-7.38s7.087 3.23 7.087 7.38c0 4.1-3.103 7.34-7.087 7.34zm15 3.018h3.774v-10.2c0-4.864 2.56-7.548 6.165-7.548 3.145 0 5.83 2.14 5.83 7.34v10.4h3.774V24.758c0-6.96-3.816-10.358-9.142-10.358a8.66 8.66 0 0 0-6.626 3.061v-2.768h-3.774V35.45zm33.32.085a12.08 12.08 0 0 0 3.564-.545l-.42-3.27c-.755.2-1.552.377-2.35.377-2.138 0-3.732-1.006-3.732-3.7v-10.4h5.913v-3.313h-5.913v-6.04h-3.732v6.04H224.1v3.313h4.864V29.16c0 4.068 2.768 6.374 6.668 6.374zm15.66.2c3.9 0 6.248-1.426 8-3.355v3.06h3.774V14.693h-3.774v3.103c-1.76-2.013-4.1-3.397-8-3.397-5.66 0-9.98 4.655-9.98 10.693 0 5.955 4.32 10.65 9.98 10.65zm.88-3.313c-4.025 0-7.13-3.23-7.13-7.34 0-4.152 3.104-7.38 7.13-7.38s7.13 3.23 7.13 7.38c0 4.1-3.103 7.34-7.13 7.34zm25.553 3.523c3.648 0 6.92-1.76 8.9-4.53l-3.02-2.223c-1.216 1.97-3.396 3.23-5.87 3.23-4.068-.042-7.17-3.23-7.17-7.34 0-4.152 3.103-7.38 7.17-7.38 2.432.042 4.57 1.3 5.83 3.23l3.06-2.264a10.92 10.92 0 0 0-8.89-4.571c-5.955 0-10.904 4.865-10.904 10.945a10.94 10.94 0 0 0 10.904 10.903zm22.202-.42a12.08 12.08 0 0 0 3.564-.545l-.42-3.27c-.755.2-1.552.377-2.35.377-2.138 0-3.732-1.006-3.732-3.7v-10.4h5.913v-3.313h-5.913v-6.04h-3.732v6.04h-4.865v3.313h4.865V29.16c0 4.068 2.768 6.374 6.668 6.374z" fill="#2e2e2e"/><path fill-rule="evenodd" d="M29.57 16.22a10.84 10.84 0 0 0-4.698-1.064c-6.01 0-10.88 4.872-10.88 10.88s4.872 10.88 10.88 10.88c4.09 0 7.655-2.258 9.513-5.596l-2.623-1.457a7.88 7.88 0 0 1-6.89 4.053c-4.353 0-7.88-3.528-7.88-7.88s3.528-7.88 7.88-7.88a7.85 7.85 0 0 1 3.403.77l1.295-2.707zm5.21-14.235v25.762h-3.11V.9C29.546.313 27.3 0 25 0 11.193 0 0 11.193 0 25s11.193 25 25 25 25-11.193 25-25c0-10.337-6.274-19.21-15.222-23.016z" fill="#0aba9f"/></svg>