<svg width="232" height="40" fill="none" xmlns="http://www.w3.org/2000/svg" class="NavigationMobile_logoMedium__X_P5A"><title>Home</title><path d="M20 40c11.046 0 20-8.954 20-20S31.046 0 20 0 0 8.954 0 20s8.954 20 20 20z" fill="#221F61"></path><path d="M13.69 23.313l-.695-1.02 2.98-2.082a7.846 7.846 0 01-3.633-6.613c0-4.326 3.51-7.796 7.796-7.796 4.082 0 7.47 3.184 7.796 7.225l.04.367-14.285 9.919zm6.489-16.286a6.567 6.567 0 00-6.571 6.571c0 2.408 1.387 4.694 3.51 5.837l9.592-6.653c-.45-3.265-3.225-5.755-6.531-5.755zm-.041 27.429c-4.081 0-7.47-3.184-7.796-7.225l-.04-.367 14.285-9.919.694 1.02-2.98 2.082a7.846 7.846 0 013.633 6.613c.041 4.285-3.47 7.796-7.796 7.796zm-6.53-6.94c.408 3.266 3.224 5.756 6.53 5.756A6.567 6.567 0 0026.71 26.7c0-2.408-1.388-4.694-3.51-5.836l-9.592 6.653z" fill="#fff"></path><path d="M230.465 29.435a1.061 1.061 0 100-2.122 1.061 1.061 0 000 2.122zm-100-18.939a1.061 1.061 0 100-2.122 1.061 1.061 0 000 2.122zM55.526 21.72a6.382 6.382 0 00-1.755-.856 18.046 18.046 0 00-1.96-.613c-.57-.163-1.142-.367-1.714-.53-.571-.163-1.06-.408-1.469-.613-.408-.244-.776-.53-1.02-.857-.245-.326-.368-.734-.368-1.183v-.082c0-.816.327-1.51 1.02-2.04.695-.531 1.593-.817 2.735-.817.898 0 1.756.163 2.613.449.857.286 1.673.694 2.449 1.184l.857-1.307a10.309 10.309 0 00-2.776-1.347c-1.061-.326-2.04-.49-3.061-.49-.776 0-1.51.123-2.204.327-.653.245-1.224.53-1.714.939a4.07 4.07 0 00-1.102 1.429c-.286.53-.409 1.142-.409 1.795v.082c0 .735.164 1.347.49 1.837.327.49.776.898 1.306 1.224a7.566 7.566 0 001.837.817c.694.204 1.347.408 2 .612.572.163 1.143.326 1.633.53.53.164.98.368 1.387.654.409.244.735.571.98.898.245.326.367.734.367 1.224v.082c0 .98-.367 1.714-1.142 2.285-.776.572-1.715.817-2.817.817a8.666 8.666 0 01-3.06-.572 10.811 10.811 0 01-2.817-1.592l-.94 1.266a11.634 11.634 0 003.144 1.755c1.184.449 2.408.694 3.592.694.775 0 1.55-.123 2.204-.327.694-.245 1.306-.53 1.796-.98.53-.408.898-.938 1.224-1.51a4.459 4.459 0 00.45-1.959v-.122c0-.735-.164-1.347-.45-1.837a5.506 5.506 0 00-1.306-1.265zm16.041-7.265c-.571-.612-1.265-1.06-2.082-1.387-.816-.327-1.755-.49-2.775-.49-1.51 0-2.735.326-3.674.98-.939.652-1.714 1.469-2.245 2.448V5.843H59.2v23.51h1.591v-9.51c0-.857.164-1.633.45-2.367a4.83 4.83 0 011.224-1.837c.53-.53 1.102-.898 1.796-1.224a5.798 5.798 0 012.245-.45c1.673 0 2.98.531 3.877 1.51.898 1.021 1.347 2.368 1.347 4.083v9.755h1.592V19.272c0-.98-.163-1.878-.449-2.735-.327-.775-.735-1.47-1.306-2.082zm17.714.653c-.735-.775-1.633-1.387-2.653-1.836a8.181 8.181 0 00-3.347-.694 8.376 8.376 0 00-3.388.694c-1.02.449-1.918 1.102-2.694 1.877-.775.776-1.346 1.715-1.755 2.735a8.76 8.76 0 00-.612 3.265v.082a8.76 8.76 0 00.612 3.265 8.545 8.545 0 001.755 2.694c.735.776 1.633 1.388 2.654 1.837a8.18 8.18 0 003.346.694 8.376 8.376 0 003.388-.694c1.02-.45 1.918-1.102 2.694-1.878.776-.775 1.347-1.714 1.755-2.734a8.76 8.76 0 00.612-3.266v-.081a8.76 8.76 0 00-.612-3.266c-.408-1.02-1.02-1.918-1.755-2.694zm.694 6.123c0 .98-.163 1.877-.49 2.735-.326.857-.816 1.591-1.388 2.245-.612.612-1.306 1.142-2.122 1.51a6.5 6.5 0 01-2.694.571c-.939 0-1.837-.163-2.653-.53-.816-.368-1.551-.858-2.163-1.51a6.8 6.8 0 01-1.429-2.245 7.807 7.807 0 01-.53-2.776v-.082c0-.98.163-1.877.49-2.734.326-.857.816-1.592 1.387-2.245.612-.613 1.306-1.143 2.123-1.51a6.5 6.5 0 012.693-.572c.94 0 1.837.163 2.654.53.816.368 1.55.858 2.163 1.51a6.797 6.797 0 011.428 2.246c.327.857.53 1.796.53 2.775v.082zm16.857-6.408a7.197 7.197 0 00-2.571-1.674 7.97 7.97 0 00-2.898-.571c-.817 0-1.551.122-2.245.326a6.42 6.42 0 00-1.837.898c-.53.368-1.061.776-1.51 1.306-.45.49-.857 1.02-1.184 1.552v-3.674h-1.592v21.592h1.592v-8.694c.327.53.735 1.02 1.184 1.47.449.49.939.897 1.47 1.265.53.367 1.183.653 1.836.857a7.852 7.852 0 002.245.326c.979 0 1.959-.204 2.898-.612a8.844 8.844 0 002.571-1.714c.735-.735 1.347-1.633 1.837-2.694.449-1.061.694-2.245.694-3.592v-.082c0-1.346-.245-2.53-.694-3.591a7.26 7.26 0 00-1.796-2.694zm.857 6.408c0 1.102-.163 2.082-.49 2.939-.326.857-.775 1.592-1.387 2.204-.572.612-1.266 1.061-2.041 1.388a6.507 6.507 0 01-2.531.49c-.857 0-1.714-.164-2.49-.531-.816-.327-1.51-.817-2.163-1.429a7.048 7.048 0 01-1.51-2.204 7.339 7.339 0 01-.572-2.898v-.082c0-1.06.205-2 .572-2.857.367-.857.857-1.591 1.51-2.204a7.246 7.246 0 012.163-1.47c.817-.326 1.633-.53 2.49-.53.857 0 1.674.164 2.449.49a6.53 6.53 0 012.082 1.429c.612.612 1.061 1.347 1.388 2.245.326.898.53 1.836.53 2.938v.082zm17.388-6.408a7.197 7.197 0 00-2.571-1.674 7.97 7.97 0 00-2.898-.571c-.817 0-1.551.122-2.245.326-.694.245-1.306.531-1.837.898-.531.368-1.061.776-1.51 1.306-.449.49-.857 1.02-1.184 1.552v-3.674h-1.592v21.592h1.592v-8.694c.327.53.735 1.02 1.184 1.47.449.49.939.897 1.469 1.265.531.367 1.184.653 1.837.857a7.852 7.852 0 002.245.326c.979 0 1.959-.204 2.898-.612a8.844 8.844 0 002.571-1.714c.735-.735 1.347-1.633 1.837-2.694.449-1.061.694-2.245.694-3.592v-.082c0-1.346-.245-2.53-.694-3.591a8.41 8.41 0 00-1.796-2.694zm.816 6.408c0 1.102-.163 2.082-.489 2.939-.327.857-.776 1.592-1.388 2.204-.572.612-1.265 1.061-2.041 1.388a6.504 6.504 0 01-2.531.49c-.857 0-1.714-.164-2.489-.531-.817-.327-1.511-.817-2.164-1.429a7.065 7.065 0 01-1.51-2.204 7.346 7.346 0 01-.571-2.898v-.082c0-1.06.204-2 .571-2.857.368-.857.857-1.591 1.51-2.204a7.25 7.25 0 012.164-1.47c.816-.326 1.632-.53 2.489-.53.858 0 1.674.164 2.449.49a6.53 6.53 0 012.082 1.429c.612.612 1.061 1.347 1.388 2.245.326.898.53 1.836.53 2.938v.082zm5.388-8.286h-1.592v16.409h1.592V12.945zm14.612 1.511c-.571-.613-1.265-1.062-2.081-1.388-.817-.327-1.755-.49-2.776-.49-1.51 0-2.734.326-3.673.98-.939.653-1.714 1.469-2.245 2.448v-3.06h-1.592v16.407h1.592v-9.51c0-.857.163-1.632.449-2.367a4.854 4.854 0 011.224-1.837c.531-.53 1.102-.898 1.796-1.224a5.8 5.8 0 012.245-.45c1.674 0 2.98.531 3.878 1.51.898 1.021 1.347 2.368 1.347 4.083v9.755h1.592V19.272c0-.98-.164-1.878-.449-2.735a6.182 6.182 0 00-1.307-2.081zm44.205.571a7 7 0 00-2.368-1.837c-.939-.449-1.959-.653-3.143-.653a7.196 7.196 0 00-3.102.694 7.739 7.739 0 00-2.449 1.837 7.99 7.99 0 00-1.632 2.734 9.194 9.194 0 00-.613 3.347v.082c0 1.306.205 2.449.654 3.51.448 1.061 1.02 1.96 1.755 2.694.734.735 1.591 1.347 2.571 1.755.98.408 2 .612 3.102.612 1.551 0 2.898-.285 3.959-.898 1.061-.57 2-1.346 2.857-2.244l-1.102-.98a9.453 9.453 0 01-2.367 1.837c-.898.49-2 .734-3.265.734a6.379 6.379 0 01-2.327-.449 6.134 6.134 0 01-2-1.265 8.181 8.181 0 01-1.469-2c-.368-.775-.612-1.714-.694-2.735h13.633a.93.93 0 00.04-.285v-.327c0-1.224-.163-2.367-.53-3.388-.368-1.102-.857-2-1.51-2.775zm-11.633 5.347a8.543 8.543 0 01.612-2.53 7.016 7.016 0 011.306-2.042 5.94 5.94 0 011.837-1.346 5.344 5.344 0 012.286-.49c.938 0 1.755.163 2.489.53.694.368 1.307.817 1.796 1.429.49.571.858 1.265 1.143 2.04a7.9 7.9 0 01.49 2.409h-11.959zm28.245-5.347a6.99 6.99 0 00-2.368-1.837c-.939-.449-1.959-.653-3.143-.653a7.196 7.196 0 00-3.102.694 7.739 7.739 0 00-2.449 1.837 8.006 8.006 0 00-1.632 2.734 9.194 9.194 0 00-.612 3.347v.082c0 1.306.204 2.449.653 3.51.449 1.061 1.02 1.96 1.755 2.694.734.735 1.592 1.347 2.571 1.755.98.408 2 .612 3.102.612 1.551 0 2.898-.285 3.959-.898 1.062-.57 2-1.346 2.857-2.244l-1.102-.98a9.435 9.435 0 01-2.367 1.837c-.898.49-2 .734-3.265.734a6.379 6.379 0 01-2.327-.449 6.144 6.144 0 01-2-1.265 8.181 8.181 0 01-1.469-2c-.367-.775-.612-1.714-.694-2.735h13.633a.93.93 0 00.04-.285v-.327c0-1.224-.163-2.367-.53-3.388a7.598 7.598 0 00-1.51-2.775zm-11.592 5.347a8.512 8.512 0 01.612-2.53 7.016 7.016 0 011.306-2.042 5.94 5.94 0 011.837-1.346 5.344 5.344 0 012.286-.49c.938 0 1.755.163 2.489.53.694.368 1.307.817 1.796 1.429.49.571.857 1.265 1.143 2.04a7.9 7.9 0 01.49 2.409h-11.959zm29.755-14.531v10.612a8.142 8.142 0 00-1.184-1.469 8.628 8.628 0 00-1.469-1.265c-.531-.368-1.184-.653-1.837-.857a7.843 7.843 0 00-2.245-.327c-.979 0-1.959.204-2.898.612a8.844 8.844 0 00-2.571 1.715c-.735.734-1.347 1.632-1.837 2.694-.449 1.06-.694 2.244-.694 3.591v.082c0 1.347.245 2.53.694 3.592.449 1.061 1.061 1.959 1.837 2.694a7.186 7.186 0 002.571 1.673 7.967 7.967 0 002.898.572c.817 0 1.551-.123 2.245-.327.694-.245 1.306-.53 1.837-.898.53-.367 1.061-.775 1.469-1.306.449-.49.857-1.02 1.225-1.551v3.673h1.592V5.843h-1.633zm.082 15.347c0 1.061-.205 2-.572 2.857-.367.857-.857 1.592-1.51 2.204a7.246 7.246 0 01-2.163 1.47c-.817.326-1.633.53-2.49.53a6.246 6.246 0 01-2.449-.49 6.535 6.535 0 01-2.082-1.428c-.612-.612-1.061-1.347-1.388-2.245a8.382 8.382 0 01-.53-2.939v-.081c0-1.102.163-2.082.49-2.94.326-.856.775-1.59 1.387-2.203.572-.612 1.266-1.061 2.041-1.388a6.506 6.506 0 012.531-.49c.857 0 1.714.163 2.49.53.816.327 1.51.817 2.163 1.43a7.049 7.049 0 011.51 2.203 7.35 7.35 0 01.572 2.898v.082zm-47.796-8.245h-5.715v-1.592c0-2.775 1.102-4.163 3.306-4.163.449 0 .817.04 1.184.082.368.081.776.163 1.265.326v-1.47c-.367-.122-.734-.244-1.142-.285-.368-.081-.817-.081-1.307-.081-1.428 0-2.571.449-3.428 1.306-.98.98-1.469 2.408-1.469 4.285v1.592h-5.919v3.265c-.326-.49-.735-.938-1.183-1.387a7.16 7.16 0 00-1.511-1.184 8.683 8.683 0 00-1.877-.816c-.694-.204-1.47-.286-2.286-.286-.98 0-1.959.163-2.898.53a8.45 8.45 0 00-2.531 1.552 8.273 8.273 0 00-1.795 2.449 7.611 7.611 0 00-.694 3.224v.082c0 1.184.245 2.245.694 3.184a8.273 8.273 0 001.795 2.448c.735.694 1.592 1.184 2.531 1.552.939.367 1.918.53 2.898.53.816 0 1.551-.082 2.245-.286a7.145 7.145 0 001.877-.857 8.971 8.971 0 001.511-1.224c.449-.45.857-.939 1.224-1.47v2.368c0 1.06-.163 1.959-.49 2.775-.326.776-.775 1.47-1.347 2a5.37 5.37 0 01-2.04 1.184c-.776.286-1.633.408-2.613.408-2.449 0-4.653-.775-6.653-2.326l-.938 1.306c2.244 1.714 4.775 2.53 7.551 2.53a9.99 9.99 0 003.387-.571c1.021-.367 1.878-.898 2.613-1.633a7.235 7.235 0 001.551-2.367c.367-.939.53-2 .53-3.184V14.292h4.327v14.98h1.592v-14.98h5.714l.041-1.347zm-13.143 7.429c0 .939-.204 1.796-.572 2.571a5.602 5.602 0 01-1.551 1.96c-.653.53-1.347.979-2.163 1.265a7.685 7.685 0 01-2.531.449 6.819 6.819 0 01-2.408-.45c-.775-.326-1.469-.734-2.04-1.305a5.843 5.843 0 01-1.388-2 6.52 6.52 0 01-.531-2.531v-.082c0-.98.163-1.836.49-2.612.326-.775.775-1.428 1.388-1.96a6.045 6.045 0 012.041-1.224 7.035 7.035 0 012.448-.448c.858 0 1.715.163 2.531.448.816.286 1.551.694 2.163 1.266.653.53 1.143 1.224 1.551 2 .368.775.572 1.632.572 2.571v.082z" fill="#221F61"></path></svg>