<svg xmlns="http://www.w3.org/2000/svg" width="202" height="48" viewBox="0 0 202 48">
  <path fill="#010061" fill-rule="evenodd" d="M35.1980914 3.90798505e-14C43.6003857 3.90798505e-14 50.4364603 6.82372786 50.4385234 15.2120666 55.8533877 16.8028671 59.8184524 21.808327 59.8184524 27.7230681 59.8184524 34.9105084 53.9638441 40.7584511 46.7655407 40.7619823L46.7655407 40.7619823 44.7242088 40.7999715C44.3260223 40.8034737 44.0003406 40.4836069 43.9970985 40.0857596L43.9970985 40.0857596 43.9811828 38.1341894C43.9782355 37.7366364 44.2983173 37.4111785 44.6967984 37.4085301L44.6967984 37.4085301 46.7581723 37.3702755C52.0863846 37.3702755 56.4210465 33.0422153 56.4210465 27.7230681 56.4210465 22.6978923 52.5532442 18.5590449 47.6344183 18.1155865 47.4036411 18.0949879 47.213832 17.8975356 47.213832 17.6662427L47.213832 17.6662427 47.213832 15.7770568 47.2156004 15.2161863C47.2156004 8.6923152 41.7329472 3.38405582 35.1980914 3.38405582 29.4386824 3.38405582 24.5375405 7.47964616 23.5310218 13.1268997L23.5310218 13.1268997 23.4296331 13.8816912C23.3815914 14.2406954 23.0744779 14.5090658 22.7116596 14.5090658L22.7116596 14.5090658 18.5376281 14.5090658 18.5379228 14.5052403 17.8249598 14.5052403 17.5771857 14.510777C13.6287471 14.6537966 10.461599 17.8457088 10.3622794 21.7989105 10.3546163 21.9122028 10.3484269 22.0260837 10.3457743 22.140553 10.3422375 22.2809178 10.3333955 23.1469418 10.3277955 23.697513 10.3251429 23.9526414 10.1182392 24.1583331 9.86240954 24.1600987 8.91866932 24.1786374 8.02385504 24.3946285 7.21746115 24.7692287 5.24332872 25.6879263 3.80148701 27.5544538 3.48052102 29.7835167 3.42658458 30.122805 3.39740586 30.4700386 3.39740586 30.8240403 3.39740586 34.3622913 6.2079951 37.256689 9.71740011 37.4008792L9.71740011 37.4008792 9.71740011 37.3826347 32.648637 37.3826347C32.8378566 37.3826347 33.0282552 37.3711583 33.2142327 37.3476171 35.4618789 37.0677704 37.1566029 35.1479808 37.1566029 32.8818405L37.1566029 32.8818405 37.1566029 15.2470842C37.1566029 14.837172 37.4890635 14.5052403 37.8996289 14.5052403L37.8996289 14.5052403 39.8109828 14.5052403C40.2212534 14.5052403 40.553714 14.837172 40.553714 15.2467899L40.553714 15.2467899 40.5540088 24.7642262 40.5540088 33.2970494 40.5422194 33.2970494C40.3435682 37.0877805 37.4410218 40.2396606 33.634819 40.7137227 33.4780202 40.7331442 33.3191583 40.7475633 33.1602963 40.7578626L33.1602963 40.7578626 33.1602963 40.7746357 9.99209277 40.7746357 9.99209277 40.7999715C4.48261869 40.7999715-9.59232693e-14 36.3247494-9.59232693e-14 30.8240403-9.59232693e-14 26.3647375 2.94587243 22.580186 6.99611545 21.306604 7.23927151 18.658801 8.41644154 16.2163955 10.3628689 14.3654641 12.1412976 12.674319 14.4384591 11.6429176 16.8431988 11.3939688 16.8431988 11.3939688 17.3262688 11.3239336 18.754258 11.2968611L18.754258 11.2968611 18.7725316 11.2968611C19.1736654 11.2895045 19.6443565 11.2853848 20.2040576 11.2871504L20.2040576 11.2871504 20.2028786 11.2939185 20.4696134 11.2936242C22.2235791 4.67676514 28.220839 3.90798505e-14 35.1980914 3.90798505e-14zM19.4178825 25.9923442C19.8331635 25.9923442 20.1697505 26.3283957 20.1697505 26.7430161L20.1697505 26.7430161 20.1700452 29.1068526 20.1700452 31.9753549C20.1700452 32.3899753 19.8331635 32.7260268 19.4181772 32.7260268L19.4181772 32.7260268 17.5245073 32.7260268C17.1092263 32.7260268 16.7726393 32.3899753 16.7726393 31.9753549L16.7726393 31.9753549 16.7723446 26.7430161C16.7723446 26.3283957 17.1089315 25.9923442 17.5242126 25.9923442L17.5242126 25.9923442zM26.3392827 22.1395231C26.7766689 22.1395231 27.1309399 22.4935248 27.1309399 22.9299208L27.1309399 22.9299208 27.1309399 26.9128074 27.1312346 31.935629C27.1312346 32.3723194 26.7766689 32.7260268 26.3395774 32.7260268L26.3395774 32.7260268 24.3589608 32.7260268C23.9218694 32.7260268 23.5673037 32.3723194 23.5673037 31.935629L23.5673037 31.935629 23.5670089 22.9299208C23.5670089 22.4935248 23.9215747 22.1395231 24.3589608 22.1395231L24.3589608 22.1395231zM33.1656015 18.3437895C33.553767 18.3437895 33.8688383 18.6580653 33.8688383 19.0459076L33.8688383 19.0459076 33.8691331 26.6815145 33.8691331 32.0239088C33.8691331 32.411751 33.5540618 32.7260268 33.1656015 32.7260268L33.1656015 32.7260268 31.0653227 32.7260268C30.6768625 32.7260268 30.3620859 32.411751 30.3620859 32.0239088L30.3620859 32.0239088 30.3620859 26.3077971 30.3617912 19.0459076C30.3617912 18.6580653 30.6768625 18.3437895 31.0653227 18.3437895L31.0653227 18.3437895zM178.520512 10.3319752C178.779433 10.3319752 179.012082 10.4889227 179.108307 10.7289228L179.108307 10.7289228 186.98324 30.3498831 194.80468 10.7298702C194.900272 10.4895543 195.133554 10.3319752 195.392791 10.3319752L195.392791 10.3319752 200.747201 10.3319752C201.200788 10.3319752 201.507188 10.7936597 201.329932 11.2101863L201.329932 11.2101863 187.653016 43.3806285C186.462233 46.1810514 183.708744 48 180.6593 48L180.6593 48 176.616588 48C176.266823 48 175.983529 47.7170524 175.983529 47.3684206L175.983529 47.3684206 175.983529 43.0891547C175.983529 42.7402071 176.266823 42.4575753 176.616588 42.4575753L176.616588 42.4575753 179.829993 42.4575753C180.834658 42.4575753 181.744363 41.8648381 182.148254 40.947469L182.148254 40.947469 183.640057 37.5606247 172.421624 11.2105021C172.244051 10.7939755 172.550452 10.3319752 173.004355 10.3319752L173.004355 10.3319752zM107.025061 9.78941697C115.326043 9.78941697 121.23976 15.9728947 120.92608 25.0322691 120.915254 25.3409219 120.689575 25.59458 120.393722 25.6422251L120.292704 25.6502695 98.8139733 25.6502695C98.9804677 29.8499565 102.309407 33.1657481 107.191555 33.1657481 110.169147 33.1657481 112.687771 32.0491158 114.015611 29.6216405 114.111113 29.447054 114.286612 29.3334857 114.481114 29.3046006L114.579666 29.2973245 119.666609 29.2973245C120.10975 29.2973245 120.422165 29.7422722 120.260102 30.1534304 118.397643 34.883644 113.67186 38.526278 106.969668 38.526278 98.703188 38.526278 92.7666804 32.4473266 92.7666804 24.1578475 92.7666804 15.9792105 98.4255918 9.78941697 107.025061 9.78941697zM78.8783228 9.47362729C84.5805987 9.47362729 88.6280593 12.4657345 89.4003909 17.0285796 89.4652794 17.4125799 89.1636269 17.7631064 88.7730298 17.7631064L88.7730298 17.7631064 83.8503655 17.7631064C83.5794164 17.7631064 83.3398037 17.5894221 83.2524416 17.3333167 82.5453151 15.2598416 80.8550485 14.3367884 78.8226136 14.3367884 76.4321841 14.3367884 74.7647075 15.3871049 74.7647075 17.1552113 74.7647075 18.9236335 76.0988787 19.8631078 78.4889917 20.4710029L78.4889917 20.4710029 83.1581159 21.6867932C88.2165712 22.9578467 90.550975 25.8318486 90.550975 30.0318513 90.550975 35.3920654 85.8818508 38.2104883 79.6563519 38.2104883 73.4849794 38.2104883 68.4850821 35.1226968 67.8235358 29.9642723 67.7754233 29.5891142 68.0751766 29.2578508 68.4540622 29.2578508L68.4540622 29.2578508 73.5850027 29.2578508C73.8752601 29.2578508 74.1262679 29.4571141 74.1971704 29.7381669 74.8716944 32.4091161 77.2481967 33.347643 79.8231628 33.347643 82.4911886 33.347643 84.3254761 32.3525897 84.3254761 30.4183779 84.3254761 28.4841661 83.1027233 27.4897444 80.2121774 26.7710071L80.2121774 26.7710071 75.654155 25.5555326C70.8182198 24.2841633 68.5392086 21.2446877 68.5392086 17.2104745 68.5392086 12.5683662 72.6525073 9.47362729 78.8783228 9.47362729zM160.542733 9.47362729C166.245325 9.47362729 170.292786 12.4657345 171.064801 17.0285796 171.129689 17.4125799 170.828037 17.7631064 170.437756 17.7631064L170.437756 17.7631064 165.514776 17.7631064C165.244143 17.7631064 165.00453 17.5894221 164.916852 17.3333167 164.210042 15.2598416 162.519458 14.3367884 160.487024 14.3367884 158.096911 14.3367884 156.429434 15.3871049 156.429434 17.1552113 156.429434 18.9236335 157.763605 19.8631078 160.153402 20.4710029L160.153402 20.4710029 164.822526 21.6867932C169.880981 22.9578467 172.215702 25.8318486 172.215702 30.0318513 172.215702 35.3920654 167.546577 38.2104883 161.320762 38.2104883 155.149706 38.2104883 150.149492 35.1226968 149.487946 29.9642723 149.44015 29.5891142 149.739587 29.2578508 150.118472 29.2578508L150.118472 29.2578508 155.249413 29.2578508C155.539987 29.2578508 155.790678 29.4571141 155.861897 29.7381669 156.536421 32.4091161 158.912607 33.347643 161.487573 33.347643 164.155599 33.347643 165.990203 32.3525897 165.990203 30.4183779 165.990203 28.4841661 164.767133 27.4897444 161.876904 26.7710071L161.876904 26.7710071 157.318565 25.5555326C152.48263 24.2841633 150.203619 21.2446877 150.203619 17.2104745 150.203619 12.5683662 154.317234 9.47362729 160.542733 9.47362729zM129.895508 8.8817842e-14C130.245273 8.8817842e-14 130.528567.282947555 130.528567.631579363L130.528567.631579363 130.528567 29.5291773C130.528567 31.0225467 131.74214 32.2332844 133.239324 32.2332844L133.239324 32.2332844 133.653344 32.2332844C133.942652 32.2332844 134.197775 32.4284424 134.265512 32.7088636 134.622241 34.1927593 135.366084 35.5263392 136.496411 36.7086557 136.880994 37.110656 136.598333 37.7760249 136.041242 37.7760249L136.041242 37.7760249 132.621459 37.7760249C128.130224 37.7760249 124.489503 34.1438119 124.489503 29.6630721L124.489503 29.6630721 124.489503.631579363C124.489503.282947555 124.773114 8.8817842e-14 125.122562 8.8817842e-14L125.122562 8.8817842e-14zM142.556808.0000947369046C142.906573.0000947369046 143.189867.282726502 143.189867.6316741L143.189867.6316741 143.189867 29.5289563C143.189867 31.0226415 144.40344 32.2333791 145.900624 32.2333791L145.900624 32.2333791 146.295336 32.2333791C146.592557 32.2333791 146.853377 32.439274 146.912252 32.7298005 147.224983 34.2736962 147.927678 35.5936971 149.020337 36.6907505 149.422013 37.0933823 149.150747 37.7761196 148.581311 37.7761196L148.581311 37.7761196 145.282442 37.7761196C140.791524 37.7761196 137.150803 34.1439067 137.150803 29.6631669L137.150803 29.6631669 137.150803.6316741C137.150803.282726502 137.434097.0000947369046 137.783862.0000947369046L137.783862.0000947369046zM106.858566 14.8739466C103.117772 14.8739466 99.9595203 16.9851377 99.0409027 21.0524843L98.9804677 21.3394246 114.3486 21.3394246C113.405343 16.8631058 110.242898 14.8739466 106.858566 14.8739466z"/>
</svg>
