<svg width="123" height="20" viewBox="0 0 123 20" fill="none" xmlns="http://www.w3.org/2000/svg">
<g clip-path="url(#clip0_426_531)">
<path d="M7.33961 9.18121C8.63234 9.14018 9.79216 9.97061 10.1698 11.2076H14.2472C13.8585 7.85479 11.1302 5.54724 7.31131 5.54724C2.89433 5.54724 0.0622559 8.69064 0.0622559 12.7435C0.0622559 16.7963 2.92075 19.9397 7.33773 19.9397C11.1113 19.9397 13.7792 17.6755 14.2226 14.4321H10.1189C9.78112 15.5227 8.71697 16.302 7.36603 16.302C5.41697 16.302 4.14339 14.7435 4.14339 12.7435C4.14339 10.7435 5.36414 9.18121 7.33961 9.18121ZM20.4774 14.8171V0.113281H16.4509V15.285C16.4509 17.9605 17.983 19.5982 20.7358 19.5982H22.1132V16.0642H21.6207C20.8924 16.0642 20.4774 15.6491 20.4774 14.8171ZM30.8245 5.54347C26.383 5.54347 23.4207 8.68687 23.4207 12.7397C23.4207 16.7925 26.4075 19.9359 30.7981 19.9359C35.1887 19.9359 38.2019 16.7925 38.2019 12.7397C38.2019 8.68687 35.2151 5.54347 30.8245 5.54347ZM27.5 12.7397C27.5 10.6359 28.9019 9.18121 30.7981 9.18121C32.6943 9.18121 34.1245 10.6605 34.1245 12.7397C34.1245 14.8189 32.7207 16.2982 30.7981 16.2982C28.9113 16.2982 27.5 14.8435 27.5 12.7397ZM48.8962 13.5718C48.8962 15.0265 47.9528 16.1944 46.5585 16.1944C45.1641 16.1944 44.349 15.2076 44.349 13.7793V5.88687H40.3226V15.0321C40.3226 17.8888 42.1943 19.9378 45.2283 19.9378C47.0736 19.9378 48.3736 18.9944 48.8924 18.0925H49.1V19.602H52.9189V5.88687H48.8962V13.5718ZM65.5453 7.4397H65.3377C64.8698 6.71328 63.6226 5.5529 61.4679 5.5529C57.7774 5.5529 55.2415 8.51517 55.2415 12.8265C55.2415 17.1378 57.8132 19.9454 61.5811 19.9454C63.8453 19.9454 64.9774 18.6718 65.3736 18.0491H65.5811V19.6076H69.583V0.113281H65.5453V7.4397ZM62.4811 16.3076C60.583 16.3076 59.3113 14.8793 59.3113 12.7491C59.3113 10.6189 60.583 9.19064 62.4547 9.19064C64.2981 9.19064 65.6245 10.5661 65.6245 12.7491C65.6245 14.7661 64.4038 16.2982 62.4811 16.2982V16.3076ZM77.8604 2.16611H74.0415V4.68687C74.0415 5.41328 73.6509 5.90762 72.9245 5.90762H71.6245V9.0246H73.8321V14.8435C73.8321 17.8623 75.6245 19.5982 78.6132 19.5982H81.3924V16.2642H79.6226C78.4283 16.2642 77.8566 15.6416 77.8566 14.6284V9.0246H81.4415V5.88687H77.8566L77.8604 2.16611ZM93.4057 7.4397H93.1962C92.7302 6.71328 91.483 5.5529 89.3264 5.5529C85.6377 5.5529 83.1 8.51517 83.1 12.8265C83.1 17.1378 85.6604 19.9359 89.434 19.9359C91.6981 19.9359 92.8302 18.6623 93.2264 18.0397H93.434V19.5982H97.4358V5.88687H93.4057V7.4397ZM90.3396 16.3076C88.4528 16.3076 87.1698 14.8793 87.1698 12.7491C87.1698 10.6189 88.4434 9.19064 90.3132 9.19064C92.183 9.19064 93.483 10.5661 93.483 12.7491C93.483 14.7661 92.2641 16.2982 90.3396 16.2982V16.3076ZM104.485 14.8171V0.113281H100.458V15.285C100.458 17.9605 101.991 19.5982 104.745 19.5982H106.121V16.0642H105.628C104.906 16.0642 104.485 15.6491 104.485 14.8171ZM121.834 5.88121H116.872L112.974 10.5567H112.819V0.113281H108.792V19.5982H112.819V15.934L114.638 13.9076L117.651 19.5982H122.17L117.417 10.8171L121.834 5.88121Z" fill="#2196F2"/>
</g>
<defs>
<clipPath id="clip0_426_531">
<rect width="122.264" height="20" fill="white"/>
</clipPath>
</defs>
</svg>
